<svg id="Capa_1" data-name="Capa 1" xmlns="http://www.w3.org/2000/svg" viewBox="0 0 1882.83 422.49"><defs><style>.cls-1{fill:#467b9d;}.cls-2{fill:#e63947;}</style></defs><title>CASESHOP</title><path class="cls-1" d="M305.2,583.58a156.93,156.93,0,0,1-24.47,29.89,162,162,0,0,1-31,23.17,149.67,149.67,0,0,1-36.38,15,155.92,155.92,0,0,1-40.29,5.19,152.15,152.15,0,0,1-60.42-12.12,153.93,153.93,0,0,1-82.51-82.52,156.54,156.54,0,0,1,0-120.84,153.87,153.87,0,0,1,82.51-82.51,152.15,152.15,0,0,1,60.42-12.13,155.49,155.49,0,0,1,40.29,5.2,149.25,149.25,0,0,1,36.38,14.94,162.8,162.8,0,0,1,31,23.17,157.55,157.55,0,0,1,24.47,29.89l-50.68,32.48a98.41,98.41,0,0,0-33.35-37.46q-21.22-14.07-48.08-14.08a82.87,82.87,0,0,0-36,8,95.17,95.17,0,0,0-29.45,21.66,106.3,106.3,0,0,0,0,142.5,94.85,94.85,0,0,0,29.45,21.66,82.73,82.73,0,0,0,36,8q26.86,0,48.08-14.07a98.51,98.51,0,0,0,33.35-37.47Z" transform="translate(-17.61 -346.66)"/><path class="cls-1" d="M537.8,436.75V653.32H481.06V544.76a57.84,57.84,0,0,0-4.77-23.45,61,61,0,0,0-55.87-36.48A57.33,57.33,0,0,0,397,489.61a67,67,0,0,0-19.28,12.83,57.39,57.39,0,0,0-13.21,19.12,59.3,59.3,0,0,0-4.76,23.69,56.74,56.74,0,0,0,4.76,23,60.59,60.59,0,0,0,13.21,19.12,64.74,64.74,0,0,0,19.28,13,57.16,57.16,0,0,0,23.39,4.78q13.41,0,22.95-4.76h.44v.86l21.65,38.55-.43.43q-21.22,16.47-52.41,16.46a109.5,109.5,0,0,1-43.31-8.66,111,111,0,0,1-35.52-23.82,114.25,114.25,0,0,1-24-35.52,107.11,107.11,0,0,1-8.88-43.31,108.26,108.26,0,0,1,8.88-43.75,113.24,113.24,0,0,1,59.56-59.55,107.11,107.11,0,0,1,43.31-8.88q22.51,0,39.42,8.37a82.37,82.37,0,0,1,29,24.27V436.75Z" transform="translate(-17.61 -346.66)"/><path class="cls-1" d="M661.24,524.68q14.29,4.77,26.21,9.74a91.2,91.2,0,0,1,20.79,11.91A49.9,49.9,0,0,1,722.1,563q5,9.75,5,23.17v.44q0,32.91-21.88,51.54t-61.28,18.62a143.34,143.34,0,0,1-48.52-8.51A166.52,166.52,0,0,1,550.79,624l-.43-.43.43-.44,29.45-46.5.44.44a88.23,88.23,0,0,0,29.45,21,87,87,0,0,0,35.08,7.15q25.56,0,25.56-16.42,0-7.77-8.23-11.66a148.48,148.48,0,0,0-19.49-7.35,16,16,0,0,0-4.12-1.07,16,16,0,0,1-4.11-1.09q-13-3.45-26-7.56a87.77,87.77,0,0,1-23.39-11.23,58.82,58.82,0,0,1-17.11-18.15q-6.72-11-6.71-28.3v-.86a66.58,66.58,0,0,1,5.63-27.65,62.19,62.19,0,0,1,16-21.6,73.44,73.44,0,0,1,25.12-14.05,101.11,101.11,0,0,1,32.48-5,147.45,147.45,0,0,1,42,6.28A144.81,144.81,0,0,1,722.31,458v.87l-26.42,48.08-.43-.43a72,72,0,0,0-24.69-15.81,83.73,83.73,0,0,0-31.19-5.85,65.76,65.76,0,0,0-6.93.43,19.76,19.76,0,0,0-7.14,2.17,16.42,16.42,0,0,0-5.42,4.55c-1.44,1.88-2.16,4.54-2.16,8a9.67,9.67,0,0,0,3.46,7.15,40,40,0,0,0,8.88,6.06,119.56,119.56,0,0,0,12.13,5.41q6.71,2.61,13.21,4.77a10.69,10.69,0,0,1,2.82.43C659.43,524.1,660.37,524.39,661.24,524.68Z" transform="translate(-17.61 -346.66)"/><path class="cls-1" d="M857,433.29a107.17,107.17,0,0,1,43.31,8.88,113.24,113.24,0,0,1,59.56,59.55,108.43,108.43,0,0,1,8.88,43.75,111.52,111.52,0,0,1-2.6,24.25l-.44.87h-110L828,526.41h82.29a64.51,64.51,0,0,0-20.14-29.89A50.26,50.26,0,0,0,857,484.83a52.46,52.46,0,0,0-22.09,4.75,57.47,57.47,0,0,0-18,12.73,58.05,58.05,0,0,0-11.91,19,64.79,64.79,0,0,0-4.33,24,59,59,0,0,0,3.9,20.5A62.86,62.86,0,0,0,815.87,585a64.62,64.62,0,0,0,17.76,14.45A46.93,46.93,0,0,0,857,605.24,67.39,67.39,0,0,0,878.46,602q9.74-3.24,18.41-14.51l.43-.43.87.43,50.24,22.13-.87.88a108.12,108.12,0,0,1-39.63,34.06A110.65,110.65,0,0,1,857,656.78a112.23,112.23,0,0,1-44-8.66,110.54,110.54,0,0,1-35.73-23.82,114.25,114.25,0,0,1-24-35.52,107.11,107.11,0,0,1-8.88-43.31,108.26,108.26,0,0,1,8.88-43.75,112.68,112.68,0,0,1,59.77-59.55A109.77,109.77,0,0,1,857,433.29Z" transform="translate(-17.61 -346.66)"/><path class="cls-1" d="M1081.82,524.68q14.29,4.77,26.2,9.74a90.77,90.77,0,0,1,20.79,11.91A49.67,49.67,0,0,1,1142.67,563q5,9.75,5,23.17v.44q0,32.91-21.87,51.54t-61.29,18.62a143.29,143.29,0,0,1-48.51-8.51A166.52,166.52,0,0,1,971.37,624l-.43-.43.43-.44,29.45-46.5.43.44a88.37,88.37,0,0,0,29.46,21,87,87,0,0,0,35.08,7.15q25.56,0,25.56-16.42,0-7.77-8.23-11.66a148.48,148.48,0,0,0-19.49-7.35,16,16,0,0,0-4.12-1.07,15.91,15.91,0,0,1-4.11-1.09q-13-3.45-26-7.56A87.77,87.77,0,0,1,1006,548.86a58.7,58.7,0,0,1-17.11-18.15q-6.72-11-6.71-28.3v-.86a66.58,66.58,0,0,1,5.63-27.65,62.16,62.16,0,0,1,16-21.6A73.49,73.49,0,0,1,1029,438.25a101.11,101.11,0,0,1,32.48-5,147.38,147.38,0,0,1,42,6.28,144.87,144.87,0,0,1,39.42,18.4v.87l-26.42,48.08-.43-.43a72,72,0,0,0-24.69-15.81,83.73,83.73,0,0,0-31.19-5.85,65.76,65.76,0,0,0-6.93.43,19.81,19.81,0,0,0-7.15,2.17,16.49,16.49,0,0,0-5.41,4.55c-1.45,1.88-2.17,4.54-2.17,8a9.65,9.65,0,0,0,3.47,7.15,39.75,39.75,0,0,0,8.88,6.06,119.56,119.56,0,0,0,12.13,5.41q6.7,2.61,13.21,4.77a10.62,10.62,0,0,1,2.81.43Q1080.51,524.25,1081.82,524.68Z" transform="translate(-17.61 -346.66)"/><path class="cls-1" d="M1174.08,350.12h57.6l-.43,303.2h-57.61Zm198.51,112.62q19.35,26,19.35,82.3V653.32h-57.61v-108q0-11.65-.65-22.46a51,51,0,0,0-4.54-19,28.72,28.72,0,0,0-12.56-13q-8.67-4.75-24.69-4.75-12.57,0-27.29,6.93l-.43.43-.44-.86-20.79-37.52.44-.43a76.52,76.52,0,0,1,25.12-15.07,88.32,88.32,0,0,1,30.32-5Q1351.1,434.59,1372.59,462.74Z" transform="translate(-17.61 -346.66)"/><path class="cls-1" d="M1526.21,433.29a108.26,108.26,0,0,1,43.75,8.88,113.18,113.18,0,0,1,59.55,59.55,110.08,110.08,0,0,1,0,86.63A113.18,113.18,0,0,1,1570,647.9a112.21,112.21,0,0,1-87.5,0,113.27,113.27,0,0,1-59.55-59.55,110.08,110.08,0,0,1,0-86.63,113.27,113.27,0,0,1,59.55-59.55A108.23,108.23,0,0,1,1526.21,433.29Zm0,172a43.53,43.53,0,0,0,20.14-4.76,53.2,53.2,0,0,0,16.46-13.21,64.91,64.91,0,0,0,11.26-19.5,68.35,68.35,0,0,0,4.12-24,66,66,0,0,0-4.12-23.18,59.46,59.46,0,0,0-11.26-19.06,56.39,56.39,0,0,0-16.46-12.77,43.54,43.54,0,0,0-20.14-4.77,44.86,44.86,0,0,0-20.36,4.77,55.48,55.48,0,0,0-16.67,12.77,59.46,59.46,0,0,0-11.26,19.06,65.73,65.73,0,0,0-4.12,23.18,68.13,68.13,0,0,0,4.12,24,64.91,64.91,0,0,0,11.26,19.5,52.4,52.4,0,0,0,16.67,13.21A44.85,44.85,0,0,0,1526.21,605.24Z" transform="translate(-17.61 -346.66)"/><path class="cls-2" d="M1787,433.29a111.3,111.3,0,0,1,44.18,8.88,113.74,113.74,0,0,1,36.16,24.25,115.15,115.15,0,0,1,24.26,35.73,108.26,108.26,0,0,1,8.88,43.75,112.33,112.33,0,0,1-8.88,44.61,112.64,112.64,0,0,1-60.42,60.43,111.48,111.48,0,0,1-44.18,8.88q-32.06,0-53.28-17.19v-.42l21.66-39.57.43.44a58.22,58.22,0,0,0,23.82,5.19,60.15,60.15,0,0,0,23.83-4.8,61.45,61.45,0,0,0,19.71-13.3,62.08,62.08,0,0,0,18-44.28,60.06,60.06,0,0,0-18-43.17,63.39,63.39,0,0,0-19.71-13.09,62.23,62.23,0,0,0-47.86,0,60.87,60.87,0,0,0-32.27,32.33,59.06,59.06,0,0,0-4.77,23.64V740h-58.47V436.75h58.47v29.18Q1741.92,433.29,1787,433.29Z" transform="translate(-17.61 -346.66)"/><polyline class="cls-2" points="1700.14 330.42 1700.14 422.49 0 422.49 0 361.11 1700.14 359.78"/></svg>